{"title":"The Twilight Saga Eclipse .2010.TS-MAGNET","uid":5676696,"size":1296209010,"categoryP":"other","categoryS":"other","magnet":"?xt=urn:btih:290a42a0615bfc90ce36f03056c52001358d88b2&amp;dn=The+Twilight+Saga+Eclipse+.2010.TS-MAGNET&amp;tr=udp%3A%2F%2Ftracker.openbittorrent.com%3A80&amp;tr=udp%3A%2F%2Fopen.demonii.com%3A1337&amp;tr=udp%3A%2F%2Ftracker.coppersurfer.tk%3A6969&amp;tr=udp%3A%2F%2Fexodus.desync.com%3A6969","seeders":0,"leechers":0,"uploader":"TvTeam","files":5,"time":1278565335,"description":". \n  &lt;a href=&quot;\nhttp://www.torrentday.com/&quot; rel=&quot;nofollow&quot; target=&quot;_NEW&quot;&gt;\nhttp://www.torrentday.com/&lt;/a&gt;        :     The Hottest Private Tracker On The Net!!!\n\n\nTo Avoid Fakes, ALWAYS Check That The Torrent Was Added By: TvTeam.\n\n\n                www . TorrentDay . Com \n(((((((((((((= Enjoy No RAR releases =))))))))))))))))))))\n\n\n...................................NFO:....................................\n\n.................................................................................\n................................................................................\n................................................................................\n................................................................................\n................................................................................\n................................................................................\n............................................ MMMMMMMMMMMMM......................\n........................................MMM.............. MMM...................\n.....................................MM......................MM ................\n...................................MM..........................M,...............\n.................................M: ............................MM..............\n...............................M ...........MMMMMMM..............MM.............\n                             M8.        MMMMMMMMMMMMM .          NM             \n                           ?M.        MMMMMMMMMMMMMMMMM          .MM            \n                          M.       +MMMMMMMMM       .~MM.         MM~           \n                        IM       .MMMMMMM7            ,MM        .MMM           \n                       M:       DMMMMMM.               MM        DMMM.          \n                      M.      .MMMMMMM                  M        MMMMZ          \n. .  . .. .  . .. .  M .. .  ?MMMMMM?. .. .  . .. .  . .M .  . ..MMMM$ .. .  . .\n                   OI      .MMMMMMM                     M        MMMMZ          \n                 .M       ,MMMMMM,                     MM       ,MMMM           \n                .M.      ,M.MMMM                       M        MMMMM           \n                MNMI.   MM MM+M.                       M       .MMMMM           \n...............M....MMMIM.$MOM....................... M....... MMMMMM...........\n............. M ......MMM7MMI....................... MD...... MMMMMM. ..........\n............ M?......O?M.MM.........................=M...... MMMMMMM M M........\n.............M...... M  MM .........................M.......MMMMMMM   M. .M ....\n............M.......M,M M..........................M.......8MMMMMM .7.MM,.M ....\n...........M ......M MMM.........................MM.......MMMMMMM ...M..MN .....\n...........M..... MZ MMM........................MM.......MMMMMMM................\n..........M,.....MM+MZM .......................M .......MMMMMMM ................\n......... ,......M.M M .......................M ...... MMMMMMM .................\n.........M .....M.M M .......................MNMM ....MMMMMMM...................\n........ MM.... MM.M.......................M..... MMMMMMMMM~....................\n......... NMMMMMMMIM..................... M........MMMMMMM .....................\n...........MMMMMMMM.....................M ...... MMMMOMMM.......................\n........... MMMMMMM...................~M........MM.MMMM ........................\n................MMM................. M,......,MMM.MMMM .........................\n...................................MM.......MMM.  MM ...........................\n................................. M ......MMMM,M M: ............................\n............................... M.......MM IM.MMM...............................\n............................. MMM. .. MMMM.M7MM ................................\n...............................MMMMMMM~ , M8M,..................................\n................................MMMMM: M IM.....................................\n................................MMMMMZM.M ......................................\n................................. 7MMMM.........................................\n....................................,,..........................................\n                                                                                \n                      MAGNET GRoUP PROUDLY PRESENTS :\n\nGeneral\nComplete name                    : The Twilight Saga Eclipse .2010.TS-MAGNET.avi\nFormat                           : AVI\nFormat/Info                      : Audio Video Interleave\nFile size                        : 1.19 GiB\nDuration                         : 1h 53mn\nOverall bit rate                 : 1 508 Kbps\nWriting application              : Lavf52.39.1\nWriting library                  : Boilsoft AVI tool build 1/release\n\nVideo\nFormat                           : xvid\nCodec ID                         : xvid\nDuration                         : 1h 53mn\nBit rate                         : 1 432 Kbps\nWidth                            : 700 pixels\nHeight                           : 304 pixels\nDisplay aspect ratio             : 2.35:1\nFrame rate                       : 25.000 fps\nBits/(Pixel*Frame)               : 0.269\nStream size                      : 1.13 GiB (95%)\n\nAudio\nID                               : 1\nFormat                           : MPEG Audio\nFormat version                   : Version 1\nFormat profile                   : Layer 2\nCodec ID                         : 50\nDuration                         : 1h 53mn\nBit rate mode                    : Constant\nBit rate                         : 64.0 Kbps\nChannel(s)                       : 2 channels\nSampling rate                    : 44.1 KHz\nStream size                      : 51.8 MiB (4%)\nAlignment                        : Aligned on interleaves\nInterleave, duration             : 26 ms (0.65 video frame)\nInterleave, preload duration     : 522 ms","torrent":{"xt":"urn:btih:290a42a0615bfc90ce36f03056c52001358d88b2","amp;dn":"The+Twilight+Saga+Eclipse+.2010.TS-MAGNET","amp;tr":["udp%3A%2F%2Ftracker.openbittorrent.com%3A80","udp%3A%2F%2Fopen.demonii.com%3A1337","udp%3A%2F%2Ftracker.coppersurfer.tk%3A6969","udp%3A%2F%2Fexodus.desync.com%3A6969"],"infoHash":"290a42a0615bfc90ce36f03056c52001358d88b2","infoHashBuffer":{"type":"Buffer","data":[41,10,66,160,97,91,252,144,206,54,240,48,86,197,32,1,53,141,136,178]},"announce":[],"urlList":[]}}